<?xml version="1.0" encoding="iso-8859-1"?>
<!-- Generator: Adobe Illustrator 21.0.0, SVG Export Plug-In . SVG Version: 6.00 Build 0)  -->
<svg version="1.1" id="Layer_1" xmlns="http://www.w3.org/2000/svg" xmlns:xlink="http://www.w3.org/1999/xlink" x="0px" y="0px"
	 viewBox="0 0 24 24" enable-background="new 0 0 24 24" xml:space="preserve">
<g>
	<path fill="#303C42" d="M12.9385986,11.7607422l-3-5.5C9.8516846,6.1000977,9.6827393,6,9.5001221,6h-6
		C3.3175049,6,3.1485596,6.1000977,3.0616455,6.2607422l-3,5.5c-0.0820313,0.1489258-0.0820313,0.3295898,0,0.4785156l3,5.5
		C3.1485596,17.8999023,3.3175049,18,3.5001221,18h6c0.1826172,0,0.3515625-0.1000977,0.4384766-0.2607422l3-5.5
		C13.0206299,12.090332,13.0206299,11.909668,12.9385986,11.7607422z"/>
	<polygon fill="#1E88E5" points="9.2032471,17 3.7969971,17 1.069458,12 3.7969971,7 9.2032471,7 11.9307861,12 	"/>
	<path fill="#303C42" d="M3.2169189,11.7607422c-0.1308594-0.2426758-0.4345703-0.3310547-0.6777344-0.199707
		c-0.2421875,0.1323242-0.3320313,0.4360352-0.1992188,0.6782227l1.9091797,3.5C4.3389893,15.9057617,4.5108643,16,4.6876144,16
		c0.0810623,0,0.1630936-0.0195313,0.2392654-0.0610352c0.2421875-0.1323242,0.3320313-0.4360352,0.1992188-0.6782227
		L3.2169189,11.7607422z"/>
	<path fill="#303C42" d="M8.3126144,8h-3.625C4.4112549,8,4.1876149,8.2236328,4.1876149,8.5S4.4112549,9,4.6876144,9h3.625
		c0.2763748,0,0.5-0.2236328,0.5-0.5S8.5889893,8,8.3126144,8z"/>
	<path fill="#303C42" d="M14.0655518,11.2480469C14.1553955,11.4038086,14.3204346,11.5,14.5001221,11.5h6
		c0.1796875,0,0.3447266-0.0961914,0.4345703-0.2519531l3-5.25c0.0869141-0.1538086,0.0869141-0.3422852,0-0.4960938l-3-5.25
		C20.8448486,0.0961914,20.6798096,0,20.5001221,0h-6c-0.1796875,0-0.3447266,0.0961914-0.4345703,0.2519531l-3,5.25
		c-0.0869141,0.1538086-0.0869141,0.3422852,0,0.4960938L14.0655518,11.2480469z"/>
	<polygon fill="#1E88E5" points="14.7901611,1 20.210083,1 22.9239502,5.75 20.210083,10.5 14.7901611,10.5 12.0762939,5.75 	"/>
	<path fill="#303C42" d="M20.9346924,12.7519531C20.8448486,12.5961914,20.6798096,12.5,20.5001221,12.5h-6
		c-0.1796875,0-0.3447266,0.0961914-0.4345703,0.2519531l-3,5.25c-0.0869141,0.1538086-0.0869141,0.3422852,0,0.4960938l3,5.25
		C14.1553955,23.9038086,14.3204346,24,14.5001221,24h6c0.1796875,0,0.3447266-0.0961914,0.4345703-0.2519531l3-5.25
		c0.0869141-0.1538086,0.0869141-0.3422852,0-0.4960938L20.9346924,12.7519531z"/>
	<polygon fill="#1E88E5" points="20.210083,23 14.7901611,23 12.0762939,18.25 14.7901611,13.5 20.210083,13.5 22.9239502,18.25 	
		"/>
	<path fill="#303C42" d="M19.3389893,21h-3.6777344c-0.2763672,0-0.5,0.2236328-0.5,0.5s0.2236328,0.5,0.5,0.5h3.6777344
		c0.2763672,0,0.5-0.2236328,0.5-0.5S19.6153564,21,19.3389893,21z"/>
	<path fill="#303C42" d="M19.0909424,14.565918c-0.2402344,0.137207-0.3232422,0.4423828-0.1865234,0.6821289l1.8574219,3.25
		C20.8546143,18.659668,21.0235596,18.75,21.1964111,18.75c0.0849609,0,0.1699219-0.0209961,0.2480469-0.065918
		c0.2402344-0.137207,0.3232422-0.4423828,0.1865234-0.6821289l-1.8574219-3.25
		C19.6348877,14.5107422,19.3282471,14.4282227,19.0909424,14.565918z"/>
	<linearGradient id="SVGID_1_" gradientUnits="userSpaceOnUse" x1="3.0836098" y1="5.2774701" x2="25.2757244" y2="15.625823">
		<stop  offset="0" style="stop-color:#FFFFFF;stop-opacity:0.2"/>
		<stop  offset="1" style="stop-color:#FFFFFF;stop-opacity:0"/>
	</linearGradient>
	<path fill="url(#SVGID_1_)" d="M12.9385986,11.7607422l-3-5.5C9.8516846,6.1000977,9.6827393,6,9.5001221,6h-6
		C3.3175049,6,3.1485596,6.1000977,3.0616455,6.2607422l-3,5.5c-0.0820313,0.1489258-0.0820313,0.3295898,0,0.4785156l3,5.5
		C3.1485596,17.8999023,3.3175049,18,3.5001221,18h6c0.1826172,0,0.3515625-0.1000977,0.4384766-0.2607422l3-5.5
		C13.0206299,12.090332,13.0206299,11.909668,12.9385986,11.7607422z M14.0655518,11.2480469
		C14.1553955,11.4038086,14.3204346,11.5,14.5001221,11.5h6c0.1796875,0,0.3447266-0.0961914,0.4345703-0.2519531l3-5.25
		c0.0869141-0.1538086,0.0869141-0.3422852,0-0.4960938l-3-5.25C20.8448486,0.0961914,20.6798096,0,20.5001221,0h-6
		c-0.1796875,0-0.3447266,0.0961914-0.4345703,0.2519531l-3,5.25c-0.0869141,0.1538086-0.0869141,0.3422852,0,0.4960938
		L14.0655518,11.2480469z M20.9346924,12.7519531C20.8448486,12.5961914,20.6798096,12.5,20.5001221,12.5h-6
		c-0.1796875,0-0.3447266,0.0961914-0.4345703,0.2519531l-3,5.25c-0.0869141,0.1538086-0.0869141,0.3422852,0,0.4960938l3,5.25
		C14.1553955,23.9038086,14.3204346,24,14.5001221,24h6c0.1796875,0,0.3447266-0.0961914,0.4345703-0.2519531l3-5.25
		c0.0869141-0.1538086,0.0869141-0.3422852,0-0.4960938L20.9346924,12.7519531z"/>
</g>
<g>
</g>
<g>
</g>
<g>
</g>
<g>
</g>
<g>
</g>
<g>
</g>
<g>
</g>
<g>
</g>
<g>
</g>
<g>
</g>
<g>
</g>
<g>
</g>
<g>
</g>
<g>
</g>
<g>
</g>
</svg>
